<?xml version="1.0" encoding="UTF-8" standalone="no"?>
<!DOCTYPE svg PUBLIC "-//W3C//DTD SVG 1.1//EN" "http://www.w3.org/Graphics/SVG/1.1/DTD/svg11.dtd">
<svg width="100%" height="100%" viewBox="0 0 170 251" version="1.1" xmlns="http://www.w3.org/2000/svg" xmlns:xlink="http://www.w3.org/1999/xlink" xml:space="preserve" xmlns:serif="http://www.serif.com/" style="fill-rule:evenodd;clip-rule:evenodd;stroke-linejoin:round;stroke-miterlimit:2;">
    <g transform="matrix(1,0,0,1,-346.139672,-48.229508)">
        <g>
            <g transform="matrix(-0.704918,0,0,0.704918,685.459016,48.229508)">
                <path d="M371.568,266.19C373.687,263.096 376.088,260.21 378.735,257.568C389.605,246.708 404.635,240 421.24,240C437.845,240 452.875,233.28 463.757,222.42C474.639,211.572 481.36,196.572 481.36,180C481.36,146.856 454.45,120 421.24,120C404.635,120 389.605,113.28 378.735,102.42C367.853,91.572 361.12,76.572 361.12,60C361.12,26.856 334.21,0 301,0C284.395,0 269.365,6.708 258.495,17.568C247.613,28.428 240.88,43.428 240.88,60C240.88,76.572 247.613,91.572 258.495,102.42C269.365,113.28 284.395,120 301,120C334.21,120 361.12,146.856 361.12,180C361.12,196.572 354.399,211.572 343.517,222.42C340.902,225.029 338.048,227.4 334.99,229.495C351.082,237.032 364.082,250.071 371.568,266.19Z" style="fill:white;"/>
            </g>
            <g transform="matrix(0.703511,0,0,0.704918,345.230071,129.409836)">
                <path d="M240.88,180C240.88,146.862 213.964,120 180.76,120C147.557,120 120.64,146.862 120.64,180C120.64,213.137 147.557,240 180.76,240C213.964,240 240.88,213.137 240.88,180Z" style="fill:white;fill-rule:nonzero;"/>
            </g>
        </g>
    </g>
</svg>
